<?xml version="1.0" encoding="utf-8"?>
<!-- Generator: Adobe Illustrator 18.1.0, SVG Export Plug-In . SVG Version: 6.00 Build 0)  -->
<svg version="1.1" id="Layer_1" xmlns="http://www.w3.org/2000/svg" xmlns:xlink="http://www.w3.org/1999/xlink" x="0px" y="0px"
	 width="21px" height="33.3px" viewBox="-766.5 469.5 21 33.3" enable-background="new -766.5 469.5 21 33.3" xml:space="preserve">
<g id="icomoon-ignore">
</g>
<path stroke="#FFFFFF" d="M-756,470c-5.5,0-10,4.5-10,10c0,10,10,22,10,22s10-12,10-22C-746,474.5-750.5,470-756,470z M-756,486.1
	c-3.4,0-6.1-2.7-6.1-6.1s2.7-6.1,6.1-6.1s6.1,2.7,6.1,6.1S-752.6,486.1-756,486.1z M-759.9,480c0-2.1,1.7-3.9,3.9-3.9
	s3.9,1.7,3.9,3.9s-1.7,3.9-3.9,3.9S-759.9,482.1-759.9,480z"/>
</svg>
