<?xml version="1.0" encoding="utf-8"?>
<!-- Generator: Adobe Illustrator 17.1.0, SVG Export Plug-In . SVG Version: 6.00 Build 0)  -->
<!DOCTYPE svg PUBLIC "-//W3C//DTD SVG 1.1//EN" "http://www.w3.org/Graphics/SVG/1.1/DTD/svg11.dtd">
<svg version="1.1" id="Capa_1" xmlns="http://www.w3.org/2000/svg" xmlns:xlink="http://www.w3.org/1999/xlink" x="0px" y="0px"
	 width="146px" height="125.1px" viewBox="35 10.4 146 125.1" enable-background="new 35 10.4 146 125.1" xml:space="preserve">
<g>
	<path fill="#2E358B" d="M147.1,83.4h-5.2c-0.8,0-1.4,0.2-1.9,0.7c-0.5,0.5-0.7,1.1-0.7,1.9v26.1c0,3.6-1.3,6.7-3.8,9.2
		s-5.6,3.8-9.2,3.8H58.5c-3.6,0-6.7-1.3-9.2-3.8s-3.8-5.6-3.8-9.2V44.3c0-3.6,1.3-6.7,3.8-9.2c2.6-2.6,5.6-3.8,9.2-3.8h57.4
		c0.8,0,1.4-0.2,1.9-0.7c0.5-0.5,0.7-1.1,0.7-1.9v-5.2c0-0.8-0.2-1.4-0.7-1.9c-0.5-0.5-1.1-0.7-1.9-0.7H58.5c-6.5,0-12,2.3-16.6,6.9
		C37.3,32.3,35,37.9,35,44.3v67.8c0,6.5,2.3,12,6.9,16.6c4.6,4.6,10.1,6.9,16.6,6.9h67.8c6.5,0,12-2.3,16.6-6.9
		c4.6-4.6,6.9-10.1,6.9-16.6V86c0-0.8-0.2-1.4-0.7-1.9C148.5,83.7,147.9,83.4,147.1,83.4z"/>
	<path fill="#2E358B" d="M179.5,12c-1-1-2.3-1.5-3.7-1.5h-41.7c-1.4,0-2.6,0.5-3.7,1.5c-1,1-1.5,2.3-1.5,3.7s0.5,2.6,1.5,3.7
		l14.3,14.3L91.6,86.8c-0.5,0.5-0.8,1.2-0.8,1.9c0,0.7,0.3,1.3,0.8,1.9l9.3,9.3c0.5,0.5,1.2,0.8,1.9,0.8s1.3-0.3,1.9-0.8l53.1-53.1
		L172.1,61c1,1,2.3,1.5,3.7,1.5s2.6-0.5,3.7-1.5s1.5-2.3,1.5-3.7V15.6C181,14.2,180.5,13,179.5,12z"/>
</g>
</svg>
