<?xml version="1.0" encoding="utf-8"?>
<!-- Generator: Adobe Illustrator 19.1.0, SVG Export Plug-In . SVG Version: 6.00 Build 0)  -->
<svg version="1.1" xmlns="http://www.w3.org/2000/svg" xmlns:xlink="http://www.w3.org/1999/xlink" x="0px" y="0px" width="24.7px"
	 height="24.7px" viewBox="-225.5 308.5 24.7 24.7" enable-background="new -225.5 308.5 24.7 24.7" xml:space="preserve">
<g id="Layer_1">
	<g>
		<path d="M-216.5,310c0.4,0,0.9,0.1,1.4,0.3c0.5,0.2,1,0.5,1.3,0.8l11.2,11.1c0.2,0.2,0.3,0.4,0.3,0.7c0,0.3-0.1,0.5-0.3,0.7
			l-7.7,7.7c-0.2,0.2-0.4,0.3-0.7,0.3c-0.3,0-0.5-0.1-0.7-0.3l-11.2-11.2c-0.3-0.3-0.6-0.7-0.8-1.2c-0.2-0.5-0.3-1-0.3-1.4V311
			c0-0.3,0.1-0.5,0.3-0.7c0.2-0.2,0.4-0.3,0.7-0.3H-216.5 M-216.5,309h-6.5c-0.5,0-1,0.2-1.4,0.6c-0.4,0.4-0.6,0.9-0.6,1.4v6.5
			c0,0.6,0.1,1.2,0.4,1.8s0.6,1.2,1,1.6l11.2,11.2c0.4,0.4,0.9,0.6,1.4,0.6c0.5,0,1-0.2,1.4-0.6l7.7-7.7c0.4-0.4,0.6-0.9,0.6-1.4
			c0-0.5-0.2-1-0.6-1.4l-11.2-11.2c-0.4-0.4-0.9-0.7-1.6-1S-215.9,309-216.5,309L-216.5,309z"/>
	</g>
</g>
<g id="Layer_2">
	<g>
		<path fill="#FFFFFF" d="M-220,315.5c-0.4,0-0.8-0.1-1.1-0.4s-0.4-0.6-0.4-1.1s0.1-0.8,0.4-1.1s0.6-0.4,1.1-0.4s0.8,0.1,1.1,0.4
			s0.4,0.6,0.4,1.1s-0.1,0.8-0.4,1.1S-219.6,315.5-220,315.5z"/>
		<path d="M-220,313c0.3,0,0.5,0.1,0.7,0.3c0.2,0.2,0.3,0.4,0.3,0.7s-0.1,0.5-0.3,0.7c-0.2,0.2-0.4,0.3-0.7,0.3
			c-0.3,0-0.5-0.1-0.7-0.3c-0.2-0.2-0.3-0.4-0.3-0.7s0.1-0.5,0.3-0.7C-220.5,313.1-220.3,313-220,313 M-220,312
			c-0.6,0-1,0.2-1.4,0.6c-0.4,0.4-0.6,0.9-0.6,1.4s0.2,1,0.6,1.4s0.9,0.6,1.4,0.6s1-0.2,1.4-0.6s0.6-0.9,0.6-1.4s-0.2-1-0.6-1.4
			C-219,312.2-219.4,312-220,312L-220,312z"/>
	</g>
</g>
</svg>
