<?xml version="1.0" encoding="utf-8"?>
<!-- Generator: Adobe Illustrator 19.1.0, SVG Export Plug-In . SVG Version: 6.00 Build 0)  -->
<svg version="1.1" id="Layer_1" xmlns="http://www.w3.org/2000/svg" xmlns:xlink="http://www.w3.org/1999/xlink" x="0px" y="0px"
	 width="24.7px" height="24.7px" viewBox="-225.5 308.5 24.7 24.7" enable-background="new -225.5 308.5 24.7 24.7"
	 xml:space="preserve">
<path d="M-218,314c0-0.6-0.2-1-0.6-1.4c-0.4-0.4-0.9-0.6-1.4-0.6s-1,0.2-1.4,0.6c-0.4,0.4-0.6,0.9-0.6,1.4s0.2,1,0.6,1.4
	c0.4,0.4,0.9,0.6,1.4,0.6s1-0.2,1.4-0.6C-218.2,315-218,314.6-218,314z M-201.3,323c0,0.6-0.2,1-0.6,1.4l-7.7,7.7
	c-0.4,0.4-0.9,0.6-1.4,0.6c-0.6,0-1-0.2-1.4-0.6l-11.2-11.2c-0.4-0.4-0.7-0.9-1-1.6c-0.3-0.7-0.4-1.3-0.4-1.8V311
	c0-0.5,0.2-1,0.6-1.4c0.4-0.4,0.9-0.6,1.4-0.6h6.5c0.6,0,1.2,0.1,1.8,0.4c0.7,0.3,1.2,0.6,1.6,1l11.2,11.2
	C-201.5,322-201.3,322.5-201.3,323z"/>
</svg>
