<?xml version="1.0" encoding="utf-8"?>
<!-- Generator: Adobe Illustrator 19.1.0, SVG Export Plug-In . SVG Version: 6.00 Build 0)  -->
<svg version="1.1" xmlns="http://www.w3.org/2000/svg" xmlns:xlink="http://www.w3.org/1999/xlink" x="0px" y="0px" width="577.4px"
	 height="1023.3px" viewBox="742.7 -617.9 577.4 1023.3" style="enable-background:new 742.7 -617.9 577.4 1023.3;"
	 xml:space="preserve">
<style type="text/css">
	.st0{fill:#939393;stroke:#FFFFFF;stroke-width:2;stroke-miterlimit:10;}
	.st1{fill:#939393;}
	.st2{fill:#939393;stroke:#FFFFFF;stroke-width:2;}
	.st3{fill:#939393;stroke:#FFFFFF;stroke-width:4;stroke-miterlimit:10;}
	.st4{fill:#939393;stroke:#FFFFFF;stroke-width:5;stroke-miterlimit:10;}
</style>
<g id="South_West">
	<path class="st0" d="M1082.7,239.2c0.9-1.1,1.8-2.1,2.8-3.1c-4.2-8.1-7.7-16.6-11.6-24.9l-0.5-1.4l-0.3-1.5l-0.1-1.2
		c1.2-11.3,2.8-22.5,3.8-33.8c-0.1-2.1,0.7-4.7-1.1-6.3c-2.1-2.3-4.3-4.6-6.5-6.7c-2.3,1.1-4.6,2.1-6.8,3.5c1.4,2,3.2,3.8,4.5,5.9
		c-0.1,0.3-0.3,1-0.4,1.3c-7.8,0.9-15.7,0.4-23.5,1.3c-3.7,1-7,2.9-10.7,4.1c-1.5-1.3-2.8-2.9-4.5-4.1c-3-0.8-6.1-0.5-9.1-0.5
		c0.1,4,0.8,8.1,0.5,12.1c-0.8,1-1.9,1.6-3,2.3c-3.7,2.1-7.4,4.3-11,6.5c0.3,6.6,0.3,13.2,0.7,19.8c2.8-1.9,4.4-5.1,7.4-6.9
		c0.4,0.3,1.3,0.9,1.7,1.2c-0.6,3.1-3.2,5.2-4.7,7.8c-2.2,3.6-4.9,6.9-7.6,10.2l-0.4,0.3l-3,3.1l-1.3,1.5l-0.6,0.7l0,0
		c-5.8,6.3-11.7,12.7-17.5,19.1c-0.6,0.7-1.4,1.4-1.3,2.4c0.1,3.7,1.3,7.4,1,11.1c-0.4,1.5-2.2,1.6-3.4,1.9
		c-8.1,1-16.2,2.2-24.3,3.3c-1.9,0.2-4,0.6-5.8-0.3c-3.1-1.5-6-3.3-9.2-4.7c-1-0.6-2.2-0.1-3.2,0c-2.4,0.6-4.8-0.4-7.2-0.7l-1.7-0.5
		l-1.5-0.3l0,0c-2.9-0.8-6,0-8.9,0.4c-8.2,1.4-16.4,2.6-24.6,4.1c-2.2,0.1-2.6,2.7-3,4.5c0.4,2.9,2.8,5.1,3.2,8
		c-0.9,2.5-3.2,4-5,5.9c-1.7,1.5-3.1,3.7-5.3,4.6c-4.6-0.3-8.8-2.3-13.4-2.9c-0.8,2.2-1.4,4.4-1.9,6.6l-0.1,0.1l-0.6,2.4
		c0,0,0,0,0,0c-0.3,4.7-0.3,9.4-0.3,14.2c0,1.3-0.3,2.7-1.4,3.6c-4.8,3.8-10,7.1-14.9,10.9c-1.5,2.4,0.2,6-2,8.1
		c-2.8,1.8-6.1,2.7-9.1,4.2c-3.3,1.6-7,2-10.6,2.7c-0.5,3.5,0.2,7-0.5,10.5c-3.1,4-7.3,7-10.8,10.6c-6,6-12.3,11.6-18.3,17.5
		c-0.6,0.6-1.3,1-2.1,1.3c-1.9-0.5-3.4-1.9-5-3c-3.7,1.3-7.2,3-10.8,4.5c-1.3,0.6-2.9,1.1-3.5,2.6c-0.8,2.2-1.5,4.4-2.1,6.6
		c-0.7,1.9,1.1,3.3,2.4,4.3c2.6-0.1,5.1-0.9,7.5-1.9c2.5-2,3.5-5.4,6.1-7.3c2.3,0.1,4.3,1.4,6.4,2.2c2.7,1.3,6.3,1.9,7.9,4.8
		c2.4,4.1,4.6,8.3,7.1,12.4c3.1-2.1,5.9-4.6,8.8-7c-1.9-2.3-4.5-3.9-6.5-6c0.2-0.4,0.7-1.1,1-1.5c3.2-1.7,6.9-2.2,10.2-3.7
		c2.6-2,2.8-5.9,5.6-7.7c3.2-1.2,7-0.7,10-2.3c2.5-4,3.4-8.8,6.2-12.7c4.4-1,9,0.6,13.4,0.7c3.7,0.6,5.6-3.5,8.9-4.3
		c2.5-0.2,5-0.1,7.5-0.1c1.6,0.1,3.5-0.2,4.8,1c2.3,2,4.3,4.3,6.5,6.3c0.8-0.7,1.6-1.4,2.2-2.2l0.5-0.3l1.2-2.3l0.8,0
		c0.7,0.3,1.3,0.6,2,1c0.6,1,0.9,2.1,1.3,3.2c4,0.8,8,1.3,12,2.1c4.1,0.7,4.1,6.8,8.3,7.4c4.1,0.9,8.3,1.9,12.4,2.5
		c0-2.4-0.4-4.8-0.6-7.1c-0.1-0.8,0.2-1.8,1-2.2c2.5-1.3,5.4-1.3,7.8-2.8c1-1.7,1.5-3.7,2.2-5.6c-1.4-1.7-3.3-3-4-5
		c0.6-2.1,3-3,4.5-4.4c-0.3-1.5-1.2-3.1-0.5-4.7c1.2-2.9,2.7-5.7,3.8-8.6c0.6-1.3,1-2.8,2.3-3.6c2.2-0.9,4.7-0.4,7-1.1
		c2.5-1.9,3.8-5.4,7-6.3c3-0.9,6.1-1.4,9.1-2.2c4.9-1,9.4-3.3,14-5.2c0,0,0,0,0,0l0.2-0.1l1.3-0.2l1.3,0l0.3,0.1c0,0,0,0,0,0
		c3.5,1.1,7.5,0.5,10.8,2.3c7.7,4.9,15.1,10.3,22.9,14.9c0.6-1.9,1.1-3.8,1.9-5.6c1-0.7,2.3-0.6,3.5-0.5c10.5,1.2,21,2.9,31.5,4
		c0.8-3.6,0.1-7.6,1.8-10.9c5.6-1.9,11.8-1,17.3-3.4c-0.7-1-1.4-2.1-2.4-2.8c-1,0.1-2,0.4-3.1,0.6c-1-3.5-1.6-7-2.5-10.6
		c-1.1-0.2-2.3-0.3-3.4-0.5c0.2-2.4,0.8-4.7,1.4-7c-1.1-0.1-2.2-0.3-3.3-0.5c-1.8-2.7-3.4-5.6-5.3-8.2c0,0,0,0,0,0l-0.2-0.6
		l-0.1-0.8l0.1-0.6l0.4-0.4l0.1-0.1c1.5-0.4,3.2-0.4,4.8-0.7c1.9-0.2,4-1,5.9,0c4,2,7.8,4.5,11.8,6.4c2.2-1.4,1.1-4,0.9-6.1
		c-1.2-8.2-2.4-16.4-3.7-24.6c3.6-1.9,7.6-2.8,11.3-4.7c0.6-1.5,0.4-3.1,0.5-4.6C1086.7,248.9,1083.8,244.2,1082.7,239.2z"/>
</g>
<g id="London">
	<path class="st1" d="M1301.9,261.8c-0.9-4.3-1.9-8.6-2.8-12.9c-0.8-3.4,1.7-6.3,2.4-9.5c-5.5,0.7-10.8,2.3-16.2,3.1
		c-4.2,0.6-8.4,2.3-12.6,2c-3.8-2.2-6.2-6.5-10.5-7.9c-4.5-1.6-8.8-3.7-13.5-4.7c-3.8-0.8-7.5-1.9-11.3-2.7c-0.9,0-2.4-0.6-2.9,0.5
		c-1.2,1.9-1.5,4.4-3.4,5.7c-2.8-0.2-5.3-1.4-8-1.8c-1.3,0.2-2.4,1.1-3.8,1.4c-1.7-0.8-2.9-2.3-4.2-3.4c0,0,0,0,0,0
		c-0.8-0.5-2.2,0.1-1.1-3.4c1.6-2.4,3.8-4.3,5.4-6.7c-0.8-2.6-1.9-5.1-2.9-7.6c-3.7,0.3-7.1,1.6-10.7,2.4c-1,0.2-2.2,0.7-3.1-0.1
		c-2-1.4-3.8-3-5.6-4.5c-1.3-1-1.1-2.9-1.5-4.3c-3.2,0-6.7-0.7-9.6,1.1c-4.3,2.5-8.4,5.4-12.9,7.8c-3.1,1-9.1,1.1-12.6,1.7
		c-0.2-0.5-0.4-1.1-0.5-1.6c-1-4.6-2.5-9.1-4-13.6c-2.3-0.7-4.8-0.8-6.9-2c-2.2-2.9-4.3-5.9-6.2-9c-1.3-1.8,0.9-3.2,2.4-3.8
		c2.3-0.6,2.8,3.1,5,3c1.8,0.1,3.5-0.2,5.2-0.4c0.1-1,0.2-2.1,0.4-3.1c-3.7-1.5-7.5-2.8-11-4.7c0.7-3.1,2-5.9,2.8-9
		c0.5-3.1-1.2-6.1-0.6-9.1c1.6-2.4,3.8-4.3,5.7-6.5c-1.4-3.4-3-6.8-4.7-10c-4.5,3.1-9.1,6.1-13.4,9.4c0.9,1.7,2.5,3.1,2.8,5.1
		c-0.8,2-2.5,3.6-3.7,5.3c-0.9,0.9-1.8,2.6-3.2,1.9c-1.3-1.9-2.3-4-3.4-5.9c-3.5,1-7.1,2-10.5,3.3c0.1,0.9,0.1,1.8,0.2,2.7
		c0,0,0,0,0,0l-0.1,1.2l-0.5,1.2l-0.1,0.1c-3.7,0.8-7.1,2.9-10.9,3.7c-2-4.5-3.6-9.3-4.8-14c0.8-1.6,2.8-1.8,4.2-2.6
		c-1.2-1.6-2.4-3.2-3.8-4.6c-0.9,1.9-1.7,3.9-2.6,5.8c-2.2-0.2-4.3-0.8-6.3-1.4c-1.6,4-2.8,8.2-4.3,12.2c-0.7,2.7-3.7,3.5-5.8,5
		c-1.2,0.9-3.3,1.5-3.4,3.3c-1.1,8.3-1.9,16.7-3.1,25c-0.1,1.7-0.6,3.5,0.2,5.1c2.4,5.2,4.6,10.4,7.1,15.5c0,0,0,0,0,0l0.1,0.1
		l1.4,3l0,0c1.2,2.8,2.8,5.3,3.9,8.2c-1,1.1-1.9,2.2-2.9,3.3c1.6,2.7,1.6,6,3,8.7l0.1,0.9l0.2,1.6l0,1.1l0,0.1
		c-0.2,2.7,0.2,5.4-0.3,8c-3.5,1.8-7.3,2.9-10.9,4.5c1.1,7.7,2.4,15.4,3.4,23.1c0.2,1.9,0.8,3.8,0.6,5.7c-0.9,1.4-2.4,2.2-3.6,3.1
		c-4.4-2.1-8.5-4.9-12.9-7c-2.4-0.4-4.9,0.5-7.4,0.7c1.2,2.4,2.7,4.7,4.2,7c1.5,0,3,0,4.4,0c-0.2,2.2-0.6,4.3-1.1,6.5
		c0.8,0.5,1.7,0.9,2.4,1.6c1,2.7,1.4,5.6,2.1,8.4c3.3,0.8,4.7,4.2,7.7,5.5c1.9,0.8,4,1.2,6.1,1.6c1-1.6,1.6-3.6,3.2-4.7
		c3.7-1.5,7.8-1.7,11.6-2.9c1.6-0.6,2.4-2.2,3.4-3.4c-0.9-2.6-2.7-4.8-3.3-7.4c0.5-0.6,0.9-1.2,1.5-1.8c5.7,3.9,10.7,8.7,16.5,12.4
		c4.4,0.2,8.9-0.1,13.3-0.3c0,0,0,0,0,0l0.5,0.1l0.7-0.1l1-0.5l0.2,0c4.3,1.7,7.9,4.9,12.2,6.7c1-2.1,1.9-4.3,3-6.3
		c11.9-2.4,23.9-4.3,35.9-6.6c0,0,0,0,0,0l0.3,0l0.8-0.2l1.2-0.4h0.1c6.5,2.7,13.4,4.5,20,6.8c4.7,1.3,9.3,3.5,14.2,4.2
		c2.9-2.7,4.9-6.2,7.6-9.1c1.1-1.2,2.8-1.6,4.3-2.1c5-1.5,10-3,15-4.4c5.7-1.6,8.7-8.1,14.6-9.1c0,0,0,0,0,0l0.6,0l0.9-0.2l1,0
		l1.2,0.2l0.4,0.1c2,1,4.2,1.4,6.4,1.5c0-2.4-0.8-4.9,0.4-7.1c1-2.3,2.2-4.5,3.3-6.7c0.7-1.2,1.3-2.6,2.7-3.1
		c3.4-1.3,7.3-1.3,10.5-3.3c4.4-2.7,8.8-5.4,13.2-8.2C1302.5,264.6,1302,262.9,1301.9,261.8z"/>
</g>
<g id="Milton_Keynes">
	<path class="st0" d="M1318.9,106.9c-0.1-0.8-0.2-1.7-0.4-2.6l0-0.2l-0.5-2.6l-0.3-2l-0.1-0.1c0,0,0,0,0,0
		c-0.9-5.8-1.9-11.6-2.8-17.4c-0.3-2.2-2.3-3.5-3.8-4.8c-6.8-5.7-13.5-11.6-20.3-17.3c-2.4-2.3-6-2.1-9-2.8
		c-6.8-1-13.4-3.1-20.3-2.8c-9,0-18,0-26.9,0c-1.4-0.2-2,1.1-2.4,2.2c-2.7,6.5-5.4,13-8.2,19.5c-0.6,1.1-1,2.9-2.6,2.7
		c-2.2-0.7-4.1-2.1-6.2-2.9c-2.1,2.4-4,5-6.1,7.4l-0.8,0.4l-0.7,0.2l-0.8,0h-0.7l0,0c-2.1,0.2-4.1,0.5-6.1,0.9c-1,3-1.6,6.1-2.6,9
		c-2.4-0.2-4.4-1.7-6.8-1.8c-5-0.1-10.1,0-15.1,0c-5.2-0.3-9.6,2.7-14.3,4.5c0.1,1.6,0.3,3.1,0.5,4.7c1.6,0.2,3.2,0.3,4.8,0.5
		c0.1,1.8,0.2,3.7,0.4,5.6c1.5,1.1,3.1,2.2,4.7,3.4c-0.2,3.2-0.2,6.6-1.3,9.6c-2.7,2.4-6,4.2-8.9,6.4c0.3,1.5,0.2,3.3,1.1,4.6
		c0,0,0,0,0,0l0.1,0.2l0.3,1.3l-0.2,0.9l-0.4,0.7l-0.5,0.5l-0.5,0.4c-0.4,0.1-0.8,0.2-1.2,0.4c-0.7,1.6-1.5,3.3-2.3,4.9
		c-2.2-0.2-4.5-0.6-6.7-1c-0.4,2-1.3,3.9-1.3,6c1.4,4.4,4.2,8.3,5.6,12.8c-0.8,2.1-2.7,3.4-4,5c-0.7,0.9-2.1,1.7-1.8,3.1
		c0.1,2.3,0.9,4.6,0.9,7c-0.6,2.9-1.9,5.5-2.6,8.3c3.4,1.5,7,2.9,10.4,4.4c0.1,0.7,0.2,1.4,0.3,2l-0.3,2.7l-0.3,1.2l-0.6,0.4
		l-0.4,0.1c-2.7,0.2-5.4,0.8-8,0.4c-1.2-0.9-2.3-2-3.5-2.9c0.7,3,2.9,5.3,4.5,7.9c1.7,2.9,6,1.5,8.1,3.7c2.1,4.5,2.7,9.6,4.9,14.2
		c3.3-0.5,6.7-0.4,9.9-1.5c4.9-2.5,9.4-5.9,14.3-8.5c2.7-0.6,5.5-0.1,8.2-0.4c0,0,0,0,0,0l1.6,0.1l1,0.8l0.1,0.2
		c0.1,1.1,0.4,2.3,0.7,3.4c1.5,1.6,3.3,2.9,5.1,4.2c0.8,0.7,1.9,0.1,2.9,0c3.7-1,7.3-2,11.1-2.7c1.9,3.3,3.5,7,4.2,10.8
		c-1.7,2.6-4,4.6-5.8,7.1c1.1,1.2,2.4,2.3,3.6,3.4c1-0.4,2-1,3.1-1.2c2.7,0.4,5.3,1.4,8.1,1.8c1.4-2.4,2.1-5.1,3.7-7.4
		c1.4-0.7,3-0.5,4.5-0.7c5.2-0.5,10.4-0.9,15.5-1.5c1.9-0.1,3-1.9,4-3.2c2.3-3.2,5-6.2,7.1-9.6c0.5-3.3,0.2-6.7,0.2-10
		c0.3-2.7-2.4-4.1-3.4-6.3c-0.1-0.9,0.3-1.5,1.1-1.9c5.4-1,11-0.1,16.3-1.3c3.5-2.5,6.4-5.7,9.4-8.8c-1.5-0.8-4.3-0.8-4.1-3
		c1-2.2,3.2-3.7,4.8-5.5c0,0,0,0,0,0l1.9-2l1-1.2c0.7-0.6,1.4-1.4,2.1-2c4.4-4.8,9.3-9.1,13.8-13.8c1-1,1.3-2.5,1.6-3.8
		c2.3-11.1,5-22.1,7.3-33.1C1318.2,114.5,1319.5,110.7,1318.9,106.9z"/>
</g>
<g id="Midlands">
	<path class="st2" d="M1214.4,23c-3.9-8.5-7.7-17-11.5-25.5c-0.6-1.3-1.2-2.8-2.5-3.6c-1.8-1.1-3.9-1.9-5.6-3.3
		c-3.1-2.4-6.8-3.9-9.6-6.8c-4.1-4.1-8.2-8.2-12.2-12.3c-0.8-0.7-1.6-1.7-2.8-1.4c-4.1,0.3-8.1,1.1-12.2,1.6c-2,0.4-3.9-0.8-5.9-0.4
		c-2.9,0.6-5.8,1.1-8.7,1.9c-4.4,2.1-7.4,6.6-12.3,7.7c-1.1,3.7-2,7.4-3,11.2c-0.1,0.3-0.1,0.5-0.2,0.8l0,0l0,0c0,0,0,0,0,0.1
		l-0.2,1l-0.6,2l-0.5,1l-0.7,0.9l-0.2,0.2c0,0,0,0,0,0c-1.2,1.6-2.3,3.2-3.5,4.8c-1.4,2.1-4.7,1.2-5.9,3.4c-1.9,3.1-3.9,6.2-5.7,9.4
		c-0.1,0.2-0.2,0.3-0.2,0.5l-0.3,0.6l-1,1.6l-0.7,0.9l-0.3,0.4c-2.7-0.8-5.2-1.9-7.7-3.1c-2.1-1.2-4.6-0.3-6.8-0.1
		c-4.8,0.6-9.6,1.4-14.4,1.8c-1.5-0.1-2.1-1.9-2.9-2.9c-4-6.6-8.2-13.1-12.2-19.7c-1-1.9-3-2.9-4.8-3.8c-2.7,3.7-5,7.6-7.5,11.4
		c2,3.3-1.6,6.5-0.5,10c1,4.3,2,8.7,3.2,13c0.2,0.7,0.5,1.3,1,1.7l-2.2,1.9c-2.1,0.7-4.1,1.9-6.2,2.7c-5.7,2-7.9,8.5-12.9,11.6
		c-2.5,1.3-5,2.5-7.4,3.9c-0.2,1.6-0.5,3.2-0.5,4.7l-0.3,0.8l-0.6,1.1l-1,0.9l-0.7,0.4l0,0c-4.2,2-8.1,4.5-12.3,6.3
		c-1.3-2.1-2.3-4.3-3.3-6.4c-2.2,0.3-4.3,0.9-6.4,1.6c0,2.3,0.8,4.9-0.1,7.1c-1.9,1.7-4.5,2.7-6.9,3.4c-2.3-1.6-3.1-4.6-4.6-6.8
		c-3.8,0.5-7.6,1.2-11.3,1.8c-1.5,0.3-3.3,0.4-4,2c-1.5,3-3.3,5.9-4.5,9.1c3.9,3.2,8.2,5.7,12,8.9c-0.8,3.7-2.7,7-4.1,10.4
		c-1.6,3.9-3.7,7.7-5,11.8c2.2,1,4.5,1.8,6.7,2.9c-0.2,0.9,0,2-0.8,2.6c-4.1,3.4-8.9,6-12.7,9.8c5.3,2.8,10.6,5.6,16.1,8.2l0.2,0.3
		l0.3,1l-0.1,1l-0.5,1.2l0,0.1c0,0.1-0.1,0.2-0.1,0.3c-2.8,8.1-5.6,16.1-8.5,24.2c-0.5,1.5-1.1,2.9-1.2,4.5c0.7,2.3,2,4.3,3.1,6.4
		c2.2,4.1,4.1,8.4,6.5,12.5c1.8-0.6,3.5-1.5,5.5-1.7c1.6,0.5,2.9,1.6,4.2,2.5c4.3,3.2,8.7,6.1,12.9,9.3c4.1-2.3,8.2-4.7,12.2-7.2
		c0.3-4.4-0.7-8.9-0.3-13.3c2.7-0.2,5.3-0.2,8-0.3l0.6,0.1l1.4,0.2l1.5,0.4l0.8,0.4c1.2,1,2.3,2.1,3.5,3.2c2.8-0.8,5.3-2.1,8-3.1
		c2.8-1.2,5.9-0.7,8.8-1c4.8-0.4,9.6-0.2,14.4-0.8c-1.4-1.9-3.1-3.6-4.2-5.8c1.8-2.2,5-2.9,7.4-4.4c0,0,0,0,0,0l2.2-1.2l0,0
		c1.6,1.1,3.1,2.4,4.4,4c1.7,2.1,4.1,3.7,5.3,6.1c0.3,2.5,0.1,5.1,0.1,7.7c2.1-1.2,4.4-2.2,6.2-4c2.3-4.7,3-10.1,5.6-14.8
		c2.1,0.5,4.1,1.1,6.2,1.6c1.2-2.1,1.7-4.5,2.6-6.7l2.5,0.6c0,0.1,0,0.2,0,0.2c1.6,2.8,4.1,4.9,5.5,7.7c-1.6,1-3.3,1.8-5,2.5
		c1.3,3.5,2.4,7.1,3.6,10.7c2.8-0.7,5.5-1.9,8.2-2.9c0-1.6,0-3.2,0-4.7c4.3-1.7,8.7-3.2,13.3-4.1c1.7,1.5,2.4,3.7,3.7,5.5
		c1.4-1.5,2.6-3,3.8-4.6c-1.1-1.8-2.4-3.6-3.4-5.4c4.5-3.8,9.8-6.7,14.4-10.5c1-3.1,2.1-6.2,3-9.3c2.4,0.2,4.7,0.7,7.1,0.9
		c0.8-2.1,1.4-4.7,3.9-5.4c-0.4-2.3-1.3-4.6-1.1-7c2.8-2.6,6.3-4.3,9.2-6.8c0.7-2.3,0.8-4.8,1.1-7.2c-1.5-1.2-3-2.3-4.5-3.3
		c-0.1-1.7-0.2-3.4-0.4-5c-1.5-0.2-3.1-0.3-4.6-0.5c-0.4-2-0.7-4-1.1-5.9c0,0,0,0,0,0l0-0.2l0.1-1.2l0.5-0.8l0.2-0.2
		c4.9-1.3,9.3-4.9,14.6-4.5c3.8,0,7.5,0,11.3,0c3.5,0,7.1-0.3,10.5,0.8c0.8-2.7,0.8-5.8,2.7-8c3.1-1,6.6-0.8,9.6-2.3
		c1.8-1.8,3.2-4,4.8-6.1c-5.6-3.5-11.6-6.3-17.1-9.9c-1.5-0.8-0.9-2.8,0.2-3.7c5.7-6.4,11.5-12.8,17.2-19.2c0.8-1,1.5-2.1,1.5-3.4
		c0.2-3.6,0.7-7.2,0.9-10.7C1215.8,26,1215.1,24.5,1214.4,23z"/>
</g>
<g id="Wales">
	<polygon class="st3" points="1009,53.3 999.7,54.5 993.3,52.8 993.1,38.4 993.1,30.6 977.6,17.2 970.9,10.5 958.3,8 937.4,15.2 
		927.8,14 920.1,9.9 920.7,16.1 909.4,20.2 898.1,22.1 904.9,12.7 893.4,12.9 890.4,6.9 887.6,-1.4 868.4,0.3 867.1,9 858.8,10.5 
		865.2,19.5 869.5,19.9 876.7,29.3 883.6,34 883.4,45.1 868.8,56 865.4,56.7 850.3,73.5 852.2,74.6 862.9,71.2 868.2,75.7 
		871.4,73.5 871.2,69.3 879.9,62.4 902.6,59.9 897,63.7 898.1,69.9 897,74.6 903.6,83.6 902.6,87.6 896,96.4 901.7,106 902.4,112.4 
		895.3,132 888.9,139.7 878.7,144.4 865.6,153.8 855.2,154 853.9,156.2 849.4,154.9 846.9,160.2 842.6,166.2 836.6,165.1 
		831.7,167.9 828.7,164.5 823.2,165.6 822.3,172.2 806.1,179 805.9,182.4 807.6,185 815.7,183.9 821,189.5 821,195.4 815,196.3 
		810.8,199.7 816.7,206.1 817.8,202.3 828.3,204 821.4,207.6 825.3,213 832.1,217.7 839.4,211 844.7,212.3 849.8,210.2 852.6,202.9 
		854.8,201 870.8,201.2 876.1,197.8 875.5,203.6 879.9,210.4 888.5,209.1 890.4,211.7 896.8,212.3 889.3,215.9 883.4,215.1 
		880.2,218.1 881.2,222.8 888.3,226.8 893,224.5 903.4,224.7 905.8,219.6 907.3,218.1 916,216.6 924.1,235.6 929.7,236 937.4,244.6 
		953.8,245.8 965.6,244.3 965.8,238.6 979.4,227.3 987.1,229.4 998.4,223.8 1005.9,215.5 1004.9,190.2 987.7,178.4 982.3,180.2 
		972.8,161.3 985.4,127.6 966.5,120.4 979.2,110.6 980,108 973.3,105.2 982.4,83 970.4,74 974.8,64.9 990.1,61.1 994.8,67.9 
		1004,65.4 	"/>
</g>
<g id="Yorkshire-Humerbside">
	<path class="st0" d="M1193.5-32.6c-6.4-12.1-12.9-24.3-19.4-36.4c-0.5-1-1.2-2.4-0.2-3.3c2.5-2.1,5.5-3.5,8-5.5
		c-1.7-1.1-3.4-2.2-5.3-2.9l0,0l-2.6-0.8l-0.8-0.6c-6.7-10.4-13.4-20.9-20-31.3c-1.3-1.9-2.3-4.3-4.4-5.5
		c-12.6-6.6-25.6-12.5-38.1-19.4c-6.5,4.5-12.9,9.2-19.4,13.8c0.2,3-0.5,5.8-1,8.7c-3.1-0.6-6.6-1.2-8.6-3.9
		c-1.3-1.4-2.2-3.2-3.7-4.3c-3.1-1.4-7-2-9.9,0c-0.7,1.1-1.1,2.4-1.6,3.6c-1.5-0.2-3.1-0.6-4.6-0.5c-2.5,1.3-4.5,3.5-7.1,4.8
		c-2.1,0-3.4-2.8-5.6-2.2c-4.3,0.8-8.6,1.8-12.9,2.8c-2,0.3-2.7,2.3-3.6,3.8c-1,2-2.5,3.7-3.1,5.9c-0.3,4,0.6,7.9,0.6,11.9
		c0,0.9-0.2,1.9-1.2,2.1c-2.8,1.1-5.8,1.3-8.5,2.6c-2.4,3.2-4,7-6.1,10.4c1.5,3.2,3.2,6.3,5.2,9.1c2.4,0.1,4.8,0,7.2,0.3
		c0.4,1.8,0.6,3.5,1,5.3c3.1,1,7,0.6,9.2,3.4c3.9,4.4,7.7,9,11.8,13.3c0,0,0,0,0,0l1.2,2c-2,2.2-4.9,3.9-5.9,6.8
		c-0.8,2.4-1.8,4.7-2.5,7c-0.6,1.8,0.5,3.6,1.1,5.2c2,0.4,4.8-0.5,6,1.7c2.8,3.9,5.5,7.9,8.2,11.9c1.6,2.6,4.6,3.6,7,5.1
		c0,0,0,0,0,0l0.1,0.1l1.4,1.6c0,0,0,0,0,0c4.3,7.7,9.2,15,13.9,22.4c6.4-0.7,12.7-1.9,19.1-2.4c2.9,0.6,5.4,2.2,8.1,3.3
		c3.2-3.9,5.4-8.5,8.2-12.6c1.3-2.2,4.6-1.4,5.9-3.4c1.8-2.6,3.9-5.1,4.7-8.2c1.2-4.3,2.3-8.7,3.4-13l0.5-0.2l1.4-0.5l1.2-0.5
		l0.6-0.5c2.1-1.4,4.2-3,6.2-4.5c1.5-1.1,3-2.5,4.9-2.8c6.6-1.5,13.4-2.4,19.8-4.6c2.6-0.8,5.2-1.9,7.9-2.4c1.5-0.3,2.7,0.8,3.7,1.7
		c3.3,3.2,6.4,6.6,9.7,9.7c1.1,1.1,2.6,1.3,4.1,1.4c3.2,0.3,6.4,0.8,9.6,0.9C1197.4-25.9,1195.3-29.1,1193.5-32.6z"/>
</g>
<g id="North_West">
	<path class="st2" d="M1048.9,10.8l0.3-1.5c0.5-0.6,0.8-1.4,1.1-2.1c-0.6-0.9-1.1-1.8-1.6-2.7c2.8-4.6,5.9-9,8.6-13.6
		c-2.9-4.2-5.8-8.5-8.8-12.7c-0.8-1.1-1.6-2.5-3.2-2.5c-0.2,0-0.4-0.1-0.6-0.1l0,0l-0.4,0l-0.8-0.1l-0.8-0.2l-0.8-0.3l-0.4-0.3
		l-0.4-0.4l-0.3-0.6l-0.2-0.6l0,0c-0.4-1.3-0.9-2.5-1.1-3.8c0.6-3.1,2.1-6,3-9c0.7-2.6,3-4.3,4.8-6.2c-2.9-3.9-6.4-7.4-9.5-11.1
		c-1.1-1.2-2-2.5-3.4-3.4c-2.5-1.1-5.4-1.1-8-2.1c-1.1-1.4-0.5-3.5-1.4-5.1c-2.1-0.4-4.3-0.2-6.4-0.3c-2.3-3.5-4.9-7.1-6.2-11.1
		c1.5-3.4,3.7-6.5,5.2-9.9c0,0,0,0,0,0l0.5-0.9l0.8-1.2l0.6-0.5c2.9-0.7,5.8-1.4,8.7-2.3c-0.2-4.1-0.8-8.1-0.7-12.2
		c0.4-2.2,1.9-4,2.9-6c1.1-1.7,1.8-3.7,3.4-5c1.7-0.7,3.5-1,5.2-1.3c-0.1-2.1,0.2-4.4-0.9-6.3c-2.9-3.9-6.8-6.9-9.5-10.9
		c-0.4-1.6,1.2-3,1.7-4.4c-1.4-1.7-3.4-3-4.3-5c0.6-3.4,2.9-6.2,4.3-9.3c-1.9-2.8-3.7-5.6-5.9-8.2c-3.2,1.9-5.9,4.6-9.3,6.3
		c-1.9-2.6-3.3-5.5-4.9-8.3c-0.5-0.9-1.1-1.9-1.1-2.9c0.7-1.9,2.3-3.4,3.1-5.3c0-2.1-1.8-4.2-0.6-6.2c1.7-2.9,3.7-5.6,5.3-8.5
		c-3.9-4.7-7.7-9.6-11.9-14c-8.5,8.1-17,16.2-25.6,24.3c-1.5,0.9-3.4,0.6-4.9,1.5c-4.3,2.1-8.6,4.3-12.9,6.4
		c-2.1,0.9-2.4,3.5-3.2,5.4c-1.6,4.1-2.6,8.7-5.6,12.1c-2.6,3.9-6.1,7.4-7.3,12c-1.5,4.9-3,9.7-4.5,14.6c-0.5,1.1,0.3,2.2,0.8,3.2
		c4.7,8.5,9.3,17,13.9,25.6c1.7,3,3.2,6.2,5.1,9.1c2.3-1.1,4.5-2.6,6.9-3.5c1,0.1,1.6,0.7,1.7,1.7c-0.5,3.2-2.3,6-2.6,9.3
		c0.8,1.5,1.9,4,3.8,3.8c3.2-3.7,5.6-8.1,8.5-12.1c0.7,0.1,1.4,0.3,2.1,0.5c1.5,1.7,2.3,3.9,3.7,5.7c1.9-1.5,3.7-3.4,6.1-4.1
		l1.7,1.8c0,0,0,0,0,0c1,2.4,2.3,4.6,3.5,6.9c0.4,0.8,0.7,2.1-0.2,2.6c-2.2,1.6-4.7,2.7-7,4.2c0.6,3.2,2.6,6,3.5,9.1
		c0.5,1.3-0.7,2.4-1.8,3c-3.3,1.7-6.6,3.3-9.9,5.1c-0.3,4.8-0.6,9.7-0.4,14.5c0.7,3.1,2.9,5.6,4.5,8.4l0,0.4l-0.2,1.7L985-27
		l-0.2,0.5c0,0,0,0,0,0c-3,4.9-5.7,10.1-8.2,15.3c0.8,4.3,3.3,8.1,4.1,12.5c-0.1,0.3-0.3,0.8-0.3,1.1c-3.2,2.1-6.8,3.3-10.2,5
		c0.7,3.6,2.1,7,3.5,10.4c0,0,0,0,0,0l1.4,1.9l0.1,0c4.2,3.6,9,6.3,13.3,9.8c1,0.5,1.1,2,0.2,2.7c-1.3,1.3-2.7,2.4-4.1,3.6
		c2.1,1.8,5.8,2.5,6.3,5.7c0.8,3.8,1.5,7.6,2.4,11.3c2.1,0.6,4.3,1,6.3,1.7c3.1,1.4,6.2-0.8,9.3-1.2c1.3,2,2.3,4.1,3.3,6.3
		c3.9-1.8,7.8-3.7,11.4-6c1.2-1.9,0.5-4.6,1.5-6.6c2.7-2.3,6.3-3.2,9.1-5.3c3-2.7,5.3-6,8.2-8.8c3.1-2,6.6-3.3,9.9-4.9
		c-0.5-5.3-2.2-10.4-3.5-15.5V10.8z"/>
</g>
<g id="North_East">
	<path class="st0" d="M1109.4-140c-2.2-2.3-4.3-4.7-6.7-6.8c-1.8-1.8-3.9-3.4-4.9-5.8c-1.4-3.4-2-7.1-4-10.3c0,0,0,0,0,0l-0.5-2.7
		l0,0c0,0,0,0,0,0c-2.4-7.1-4.7-14.2-7.1-21.2l-0.7-2.2l0,0c-2.9-18.4-5.7-36.8-8.5-55.2c-0.2-1.4-0.6-2.9-1.7-3.9
		c-8.7-8.7-17.2-17.5-26.1-26c-2.7,2-5.1,4.4-7.8,6.6c-3.6,3.4-7.6,6.4-11.1,9.9c-0.1,1.2,0.6,2.2,1,3.2c2.2,4.7,4.4,9.5,6.6,14.2
		c0.7,1.7,2.1,3.5,1.8,5.4c-1.7,2.5-4.1,4.3-6.2,6.4c-5,5-10.4,9.7-15.4,14.8c-3.6,3.5-7.5,6.8-11,10.5c3.9,5.4,8.6,10.1,12.5,15.5
		c-1.8,3.5-4.4,6.6-6,10.2c0.2,1.7,0.8,3.3,1.3,4.9c-1,1.9-2.7,3.5-3.2,5.6c1.2,2.8,2.8,5.3,4.3,7.9c3.2-1.8,5.7-4.9,9.3-6
		c1.7,2.2,3.4,4.5,5.1,6.8l2,3.8l0,0.3c-0.8,3-2.8,5.6-3.9,8.5c1.1,2.1,3.1,3.5,4.7,5.2c-0.7,1.5-1.4,2.9-2.2,4.3
		c2.6,3.5,5.9,6.3,8.6,9.7c1.8,2,1.4,4.8,1.8,7.3c3.1-0.2,6.1-1.2,9.1-1.6c1.6,0.3,2.8,1.5,4.3,2.3c2-1.4,4-3,6.1-4.3
		c1.3-0.9,2.9-0.3,4.3-0.3c0.9-3.3,4.4-4.2,7.3-4.8c2.4,0.5,4.9,1.1,7.2,2.2c2,1.6,3.1,4,5,5.7c1,0.7,2.3,1,3.4,1.4
		c0.5-2.5,1.2-5,0.9-7.5c1.8-0.8,3.6-1.7,5.2-2.9C1099.1-132.7,1104.4-136.2,1109.4-140z"/>
</g>
<g id="Scotland">
	<polygon class="st4" points="1067.3,-475.3 1064.3,-488.4 1057.5,-497.1 1043,-496 1025.9,-494.7 1014.5,-496.9 999.8,-499.6 
		992.5,-496.9 984.9,-497.1 973.7,-501.8 964.2,-501.5 959,-499 952.2,-495.8 941.9,-494.4 936.2,-489.2 929.9,-486.5 
		925.3,-489.5 920.4,-482.7 913.6,-475.9 910.4,-476.4 917.4,-486.8 924.2,-499.3 940.2,-519.9 933.2,-519.1 921.8,-515.9 
		916.1,-515.3 926.4,-525.1 926.7,-533 935.6,-536.8 937,-542.8 950.6,-553.4 958.8,-559.1 963.7,-565.9 968.8,-570.5 979.2,-576 
		985.7,-581.9 987.8,-590.7 981.1,-592.8 988.9,-612.2 965.3,-614.9 968.8,-608.9 967.5,-605.9 952.8,-611.1 939.2,-606.5 
		918.5,-604 904.6,-601 893.2,-607.3 886.4,-604 879.3,-607.3 867.7,-614.6 863.1,-610 857.6,-599.1 865.2,-590.7 858.1,-588.8 
		854.3,-585.8 858.1,-573.2 845.6,-570 837.7,-568.4 843.7,-558.9 846.2,-552.1 839.9,-552.1 833.1,-553.4 844,-542 852.7,-532.5 
		839.3,-531.9 832.6,-525.1 823.3,-531.4 819.8,-524 813.3,-525.4 808.9,-523.5 808.9,-511.8 816.8,-507.2 808.4,-497.1 
		817.1,-488.4 819.5,-484.3 816,-483.8 806.7,-490 804.3,-483 803.5,-474.8 808.9,-463.9 820.3,-463.1 813.6,-455 802.7,-451.2 
		796.4,-457.4 789,-462.8 785,-470.4 786.6,-483.5 786.9,-493 777.9,-509.1 770.8,-503.4 771.4,-492.8 775.7,-484.6 773.6,-481.9 
		769.5,-486 762.4,-492.8 757,-494.9 754.5,-490.6 756.2,-479.1 748,-486.8 745.3,-481.3 746.6,-472.3 752.6,-466.6 757,-465.6 
		761.6,-473.4 767.9,-466.9 763.5,-459.9 774.4,-443.5 784.4,-444.9 788,-438.1 792.9,-445.2 797.2,-442.7 795.3,-436.7 
		790.4,-426.1 796.9,-428.3 801.3,-432.1 807.8,-443.3 813.3,-446.5 817.6,-446.3 806.7,-429.9 812.7,-424.8 801,-420.7 
		795,-407.6 807.8,-407.1 798.8,-397.6 793.1,-394.9 777.9,-394.1 774.1,-387.8 804.6,-383.4 791.8,-379.9 789.6,-377.2 
		795.9,-367.4 803.5,-366.8 809.7,-362.2 829,-377.4 842.1,-390.2 833.9,-376.6 820.3,-350.3 813.8,-334.5 817.6,-321.4 
		809.2,-304.3 802.9,-293.7 807.3,-289.6 811.9,-290.7 805.1,-280.6 810.3,-273 801.3,-250.2 801,-234.4 794.5,-227.9 792.9,-217 
		808.1,-218.3 811.9,-222.7 820.3,-266.7 830.9,-273 824.1,-289.1 821.7,-296.4 823.1,-303.5 826,-302.7 833.1,-310.3 
		830.7,-301.3 828.5,-292.4 830.4,-285.3 837.2,-279.3 848.9,-266.2 851.3,-274.4 855.4,-286.6 857.1,-295.1 862.8,-298.1 
		869.6,-297.5 877.4,-292.6 870.9,-292.4 864.4,-293.7 860.6,-289.9 858.7,-280.1 861.4,-269.7 856.5,-264 869.6,-252.1 
		872.8,-248.6 873.1,-233.6 866.6,-228.4 863.9,-223.5 860.6,-217.8 855.7,-203.9 847,-195.3 844,-186 845.6,-168.6 839.6,-180.8 
		835.3,-179.5 834.7,-172.7 836.4,-163.4 846.2,-152 848.9,-139.5 853.6,-136.8 854.9,-136.3 849.2,-158.5 857.5,-163.1 
		867.5,-155.4 869.8,-153.6 887.5,-140.6 891.3,-155.5 884,-162.9 888,-165.3 896.7,-159.1 910.1,-151.5 918,-149.3 927.5,-154.4 
		930.7,-162 943.2,-161.2 944.6,-175.4 979.4,-173.2 981.9,-180.8 992.5,-184.4 1000.4,-192.8 1009.1,-202.3 1020,-218.1 
		1027.6,-218.6 1042,-231.1 1031.6,-253.2 1043.1,-264.7 1045.8,-267.8 1050.9,-272.7 1046.6,-280.9 1041.1,-286.9 1028.7,-288.3 
		1023,-294.3 1014.8,-297.2 1011.3,-303.8 1000.6,-302.4 994.9,-293.4 988.1,-290.7 980,-290.4 972.9,-294 963.9,-293.7 
		947,-296.5 931,-305.4 934.1,-308.2 947.4,-302.7 964.2,-299.9 975.2,-305.6 978,-312.5 991.6,-322.1 999.4,-317.9 
		1014.7,-328.9 995.3,-338.9 999.3,-342.4 1000.2,-348.3 994,-349.5 975.7,-341.9 982,-349.9 1000.8,-354.1 1004.9,-352.3 
		1016.3,-364.3 1021.8,-372 1026.3,-385.9 1036.7,-397.3 1043.1,-413.9 1047.4,-426.9 1049,-438.6 1051.2,-445.5 1059.1,-459.3 
		1068.6,-469.4 			"/>
</g>
</svg>
